<svg aria-roledescription="er" role="graphics-document document" viewBox="-97.34974670410156 0 654.5404052734375 1131.304931640625" style="max-width: 654.5404052734375px;" xmlns="http://www.w3.org/2000/svg" width="100%" id="export-svg"><style>@import url("https://cdnjs.cloudflare.com/ajax/libs/font-awesome/6.2.0/css/all.min.css"); p {margin: 0;}</style><style>#export-svg{font-family:"trebuchet ms",verdana,arial,sans-serif;font-size:10px;fill:#333;}#export-svg .error-icon{fill:#ffffff;}#export-svg .error-text{fill:#000000;stroke:#000000;}#export-svg .edge-thickness-normal{stroke-width:1px;}#export-svg .edge-thickness-thick{stroke-width:3.5px;}#export-svg .edge-pattern-solid{stroke-dasharray:0;}#export-svg .edge-thickness-invisible{stroke-width:0;fill:none;}#export-svg .edge-pattern-dashed{stroke-dasharray:3;}#export-svg .edge-pattern-dotted{stroke-dasharray:2;}#export-svg .marker{fill:#000000;stroke:#000000;}#export-svg .marker.cross{stroke:#000000;}#export-svg svg{font-family:"trebuchet ms",verdana,arial,sans-serif;font-size:10px;}#export-svg p{margin:0;}#export-svg .entityBox{fill:#ffffff;stroke:#000000;}#export-svg .attributeBoxOdd{fill:#ffffff;stroke:#000000;}#export-svg .attributeBoxEven{fill:#f2f2f2;stroke:#000000;}#export-svg .relationshipLabelBox{fill:#ffffff;opacity:0.7;background-color:#ffffff;}#export-svg .relationshipLabelBox rect{opacity:0.5;}#export-svg .relationshipLine{stroke:#000000;}#export-svg .entityTitleText{text-anchor:middle;font-size:18px;fill:#333;}#export-svg #MD_PARENT_START{fill:#f5f5f5!important;stroke:#000000!important;stroke-width:1;}#export-svg #MD_PARENT_END{fill:#f5f5f5!important;stroke:#000000!important;stroke-width:1;}#export-svg .node .neo-node{stroke:#000000;}#export-svg [data-look="neo"].node rect,#export-svg [data-look="neo"].cluster rect,#export-svg [data-look="neo"].node polygon{stroke:url(#export-svg-gradient);filter:drop-shadow( 0px 1px 2px rgba(0, 0, 0, 0.25));}#export-svg [data-look="neo"].node rect,#export-svg [data-look="neo"].node polygon,#export-svg [data-look="neo"].node path{stroke:url(#export-svg-gradient);filter:drop-shadow( 0px 1px 2px rgba(0, 0, 0, 0.25));}#export-svg [data-look="neo"].node .neo-line path{stroke:hsl(0, 0%, 70%);filter:none;}#export-svg [data-look="neo"].node circle{stroke:url(#export-svg-gradient);filter:drop-shadow( 0px 1px 2px rgba(0, 0, 0, 0.25));}#export-svg [data-look="neo"].node circle .state-start{fill:#000000;}#export-svg [data-look="neo"].statediagram-cluster rect{fill:#ffffff;stroke:url(#export-svg-gradient);stroke-width:1px;}#export-svg :root{--mermaid-font-family:"trebuchet ms",verdana,arial,sans-serif;}</style><g></g><defs><marker orient="auto" markerHeight="240" markerWidth="190" refY="7" refX="0" id="MD_PARENT_START"><path d="M 18,7 L9,13 L1,7 L9,1 Z"></path></marker></defs><defs><marker orient="auto" markerHeight="28" markerWidth="20" refY="7" refX="19" id="MD_PARENT_END"><path d="M 18,7 L9,13 L1,7 L9,1 Z"></path></marker></defs><defs><marker orient="auto" markerHeight="18" markerWidth="18" refY="9" refX="0" id="ONLY_ONE_START"><path d="M9,0 L9,18 M15,0 L15,18" fill="none" stroke="gray"></path></marker></defs><defs><marker orient="auto" markerHeight="18" markerWidth="18" refY="9" refX="18" id="ONLY_ONE_END"><path d="M3,0 L3,18 M9,0 L9,18" fill="none" stroke="gray"></path></marker></defs><defs><marker orient="auto" markerHeight="18" markerWidth="30" refY="9" refX="0" id="ZERO_OR_ONE_START"><circle r="6" cy="9" cx="21" fill="white" stroke="gray"></circle><path d="M9,0 L9,18" fill="none" stroke="gray"></path></marker></defs><defs><marker orient="auto" markerHeight="18" markerWidth="30" refY="9" refX="30" id="ZERO_OR_ONE_END"><circle r="6" cy="9" cx="9" fill="white" stroke="gray"></circle><path d="M21,0 L21,18" fill="none" stroke="gray"></path></marker></defs><defs><marker orient="auto" markerHeight="36" markerWidth="45" refY="18" refX="18" id="ONE_OR_MORE_START"><path d="M0,18 Q 18,0 36,18 Q 18,36 0,18 M42,9 L42,27" fill="none" stroke="gray"></path></marker></defs><defs><marker orient="auto" markerHeight="36" markerWidth="45" refY="18" refX="27" id="ONE_OR_MORE_END"><path d="M3,9 L3,27 M9,18 Q27,0 45,18 Q27,36 9,18" fill="none" stroke="gray"></path></marker></defs><defs><marker orient="auto" markerHeight="36" markerWidth="57" refY="18" refX="18" id="ZERO_OR_MORE_START"><circle r="6" cy="18" cx="48" fill="white" stroke="gray"></circle><path d="M0,18 Q18,0 36,18 Q18,36 0,18" fill="none" stroke="gray"></path></marker></defs><defs><marker orient="auto" markerHeight="36" markerWidth="57" refY="18" refX="39" id="ZERO_OR_MORE_END"><circle r="6" cy="18" cx="9" fill="white" stroke="gray"></circle><path d="M21,18 Q39,0 57,18 Q39,36 21,18" fill="none" stroke="gray"></path></marker></defs><path marker-start="url(#ONLY_ONE_START)" marker-end="url(#ZERO_OR_MORE_END)" style="stroke: gray; fill: none;" d="M126.195,165.48L153.347,185.203C180.499,204.926,234.803,244.373,270.741,275.976C306.68,307.579,324.254,331.339,333.041,343.219L341.828,355.099" class="er relationshipLine"></path><path marker-start="url(#ONLY_ONE_START)" marker-end="url(#ZERO_OR_MORE_END)" style="stroke: gray; fill: none;" d="M438.349,505.212L444.84,517.092C451.33,528.972,464.311,552.732,470.802,572.945C477.292,593.159,477.292,609.825,477.292,618.159L477.292,626.492" class="er relationshipLine"></path><path marker-start="url(#ONLY_ONE_START)" marker-end="url(#ZERO_OR_MORE_END)" style="stroke: gray; fill: none;" d="M352.948,189.94L368.68,205.586C384.413,221.233,415.878,252.526,427.551,280.053C439.225,307.579,431.107,331.339,427.047,343.219L422.988,355.099" class="er relationshipLine"></path><path marker-start="url(#ONLY_ONE_START)" marker-end="url(#ZERO_OR_MORE_END)" style="stroke: gray; fill: none;" d="M226.195,189.754L210.385,205.432C194.575,221.109,162.955,252.464,147.145,276.475C131.335,300.486,131.335,317.153,131.335,325.486L131.335,333.819" class="er relationshipLine"></path><path marker-start="url(#ONLY_ONE_START)" marker-end="url(#ZERO_OR_MORE_END)" style="stroke: gray; fill: none;" d="M20.393,191.466L7.826,206.858C-4.74,222.251,-29.873,253.035,-42.439,292.816C-55.006,332.598,-55.006,381.377,-55.006,430.156C-55.006,478.934,-55.006,527.713,-55.006,576.47C-55.006,625.226,-55.006,673.961,-55.006,722.695C-55.006,771.43,-55.006,820.164,-20.796,863.334C13.414,906.503,81.833,944.108,116.043,962.91L150.253,981.712" class="er relationshipLine"></path><path marker-start="url(#ONLY_ONE_START)" marker-end="url(#ZERO_OR_MORE_END)" style="stroke: gray; fill: none;" d="M338.007,476.753L316.84,493.376C295.672,509.999,253.337,543.246,232.17,584.236C211.003,625.226,211.003,673.961,211.003,722.695C211.003,771.43,211.003,820.164,211.003,852.865C211.003,885.565,211.003,902.232,211.003,910.565L211.003,918.898" class="er relationshipLine"></path><path marker-start="url(#ONLY_ONE_START)" marker-end="url(#ZERO_OR_MORE_END)" style="stroke: gray; fill: none;" d="M477.292,818.898L477.292,827.232C477.292,835.565,477.292,852.232,443.036,879.373C408.779,906.515,340.266,944.131,306.009,962.939L271.753,981.748" class="er relationshipLine"></path><g transform="translate(20,62.352928161621094 )" id="entity-Customers-48148838-81fb-5789-a690-6fddcc107b53"><rect height="129.11338233947754" width="106.1953125" y="0" x="0" class="er entityBox"></rect><text transform="translate(53.09765625,11.75)" style="dominant-baseline: middle; text-anchor: middle; font-size: 12px;" y="0" x="0" id="text-entity-Customers-48148838-81fb-5789-a690-6fddcc107b53" class="er entityLabel">Customers</text><rect height="21.14658260345459" width="47.9921875" y="23.5" x="0" class="er attributeBoxOdd"></rect><text transform="translate(5,34.073291301727295)" style="dominant-baseline: middle; font-size: 10.2px;" y="0" x="0" id="text-entity-Customers-48148838-81fb-5789-a690-6fddcc107b53-attr-1-type" class="er entityLabel">ObjectId</text><rect height="21.14658260345459" width="58.203125" y="23.5" x="47.9921875" class="er attributeBoxOdd"></rect><text transform="translate(52.9921875,34.073291301727295)" style="dominant-baseline: middle; font-size: 10.2px;" y="0" x="0" id="text-entity-Customers-48148838-81fb-5789-a690-6fddcc107b53-attr-1-name" class="er entityLabel">_id</text><rect height="21.14658260345459" width="47.9921875" y="44.64658260345459" x="0" class="er attributeBoxEven"></rect><text transform="translate(5,55.219873905181885)" style="dominant-baseline: middle; font-size: 10.2px;" y="0" x="0" id="text-entity-Customers-48148838-81fb-5789-a690-6fddcc107b53-attr-2-type" class="er entityLabel">string</text><rect height="21.14658260345459" width="58.203125" y="44.64658260345459" x="47.9921875" class="er attributeBoxEven"></rect><text transform="translate(52.9921875,55.219873905181885)" style="dominant-baseline: middle; font-size: 10.2px;" y="0" x="0" id="text-entity-Customers-48148838-81fb-5789-a690-6fddcc107b53-attr-2-name" class="er entityLabel">username</text><rect height="21.14658260345459" width="47.9921875" y="65.79316520690918" x="0" class="er attributeBoxOdd"></rect><text transform="translate(5,76.36645650863647)" style="dominant-baseline: middle; font-size: 10.2px;" y="0" x="0" id="text-entity-Customers-48148838-81fb-5789-a690-6fddcc107b53-attr-3-type" class="er entityLabel">string</text><rect height="21.14658260345459" width="58.203125" y="65.79316520690918" x="47.9921875" class="er attributeBoxOdd"></rect><text transform="translate(52.9921875,76.36645650863647)" style="dominant-baseline: middle; font-size: 10.2px;" y="0" x="0" id="text-entity-Customers-48148838-81fb-5789-a690-6fddcc107b53-attr-3-name" class="er entityLabel">password</text><rect height="21.14658260345459" width="47.9921875" y="86.93974781036377" x="0" class="er attributeBoxEven"></rect><text transform="translate(5,97.51303911209106)" style="dominant-baseline: middle; font-size: 10.2px;" y="0" x="0" id="text-entity-Customers-48148838-81fb-5789-a690-6fddcc107b53-attr-4-type" class="er entityLabel">string</text><rect height="21.14658260345459" width="58.203125" y="86.93974781036377" x="47.9921875" class="er attributeBoxEven"></rect><text transform="translate(52.9921875,97.51303911209106)" style="dominant-baseline: middle; font-size: 10.2px;" y="0" x="0" id="text-entity-Customers-48148838-81fb-5789-a690-6fddcc107b53-attr-4-name" class="er entityLabel">email</text><rect height="21.02705192565918" width="47.9921875" y="108.08633041381836" x="0" class="er attributeBoxOdd"></rect><text transform="translate(5,118.59985637664795)" style="dominant-baseline: middle; font-size: 10.2px;" y="0" x="0" id="text-entity-Customers-48148838-81fb-5789-a690-6fddcc107b53-attr-5-type" class="er entityLabel">date</text><rect height="21.02705192565918" width="58.203125" y="108.08633041381836" x="47.9921875" class="er attributeBoxOdd"></rect><text transform="translate(52.9921875,118.59985637664795)" style="dominant-baseline: middle; font-size: 10.2px;" y="0" x="0" id="text-entity-Customers-48148838-81fb-5789-a690-6fddcc107b53-attr-5-name" class="er entityLabel">created_at</text></g><g transform="translate(338.00711822509766,355.098876953125 )" id="entity-Accounts-0d3cf2e9-35e5-50b3-a379-7b394fa0bf89"><rect height="150.11338233947754" width="118.671875" y="0" x="0" class="er entityBox"></rect><text transform="translate(59.3359375,11.75)" style="dominant-baseline: middle; text-anchor: middle; font-size: 12px;" y="0" x="0" id="text-entity-Accounts-0d3cf2e9-35e5-50b3-a379-7b394fa0bf89" class="er entityLabel">Accounts</text><rect height="21.14658260345459" width="47.9921875" y="23.5" x="0" class="er attributeBoxOdd"></rect><text transform="translate(5,34.073291301727295)" style="dominant-baseline: middle; font-size: 10.2px;" y="0" x="0" id="text-entity-Accounts-0d3cf2e9-35e5-50b3-a379-7b394fa0bf89-attr-1-type" class="er entityLabel">ObjectId</text><rect height="21.14658260345459" width="70.6796875" y="23.5" x="47.9921875" class="er attributeBoxOdd"></rect><text transform="translate(52.9921875,34.073291301727295)" style="dominant-baseline: middle; font-size: 10.2px;" y="0" x="0" id="text-entity-Accounts-0d3cf2e9-35e5-50b3-a379-7b394fa0bf89-attr-1-name" class="er entityLabel">_id</text><rect height="21.14658260345459" width="47.9921875" y="44.64658260345459" x="0" class="er attributeBoxEven"></rect><text transform="translate(5,55.219873905181885)" style="dominant-baseline: middle; font-size: 10.2px;" y="0" x="0" id="text-entity-Accounts-0d3cf2e9-35e5-50b3-a379-7b394fa0bf89-attr-2-type" class="er entityLabel">ObjectId</text><rect height="21.14658260345459" width="70.6796875" y="44.64658260345459" x="47.9921875" class="er attributeBoxEven"></rect><text transform="translate(52.9921875,55.219873905181885)" style="dominant-baseline: middle; font-size: 10.2px;" y="0" x="0" id="text-entity-Accounts-0d3cf2e9-35e5-50b3-a379-7b394fa0bf89-attr-2-name" class="er entityLabel">customer_id</text><rect height="21.14658260345459" width="47.9921875" y="65.79316520690918" x="0" class="er attributeBoxOdd"></rect><text transform="translate(5,76.36645650863647)" style="dominant-baseline: middle; font-size: 10.2px;" y="0" x="0" id="text-entity-Accounts-0d3cf2e9-35e5-50b3-a379-7b394fa0bf89-attr-3-type" class="er entityLabel">string</text><rect height="21.14658260345459" width="70.6796875" y="65.79316520690918" x="47.9921875" class="er attributeBoxOdd"></rect><text transform="translate(52.9921875,76.36645650863647)" style="dominant-baseline: middle; font-size: 10.2px;" y="0" x="0" id="text-entity-Accounts-0d3cf2e9-35e5-50b3-a379-7b394fa0bf89-attr-3-name" class="er entityLabel">account_type</text><rect height="21" width="47.9921875" y="86.93974781036377" x="0" class="er attributeBoxEven"></rect><text transform="translate(5,97.43974781036377)" style="dominant-baseline: middle; font-size: 10.2px;" y="0" x="0" id="text-entity-Accounts-0d3cf2e9-35e5-50b3-a379-7b394fa0bf89-attr-4-type" class="er entityLabel">decimal</text><rect height="21" width="70.6796875" y="86.93974781036377" x="47.9921875" class="er attributeBoxEven"></rect><text transform="translate(52.9921875,97.43974781036377)" style="dominant-baseline: middle; font-size: 10.2px;" y="0" x="0" id="text-entity-Accounts-0d3cf2e9-35e5-50b3-a379-7b394fa0bf89-attr-4-name" class="er entityLabel">balance</text><rect height="21.02705192565918" width="47.9921875" y="107.93974781036377" x="0" class="er attributeBoxOdd"></rect><text transform="translate(5,118.45327377319336)" style="dominant-baseline: middle; font-size: 10.2px;" y="0" x="0" id="text-entity-Accounts-0d3cf2e9-35e5-50b3-a379-7b394fa0bf89-attr-5-type" class="er entityLabel">date</text><rect height="21.02705192565918" width="70.6796875" y="107.93974781036377" x="47.9921875" class="er attributeBoxOdd"></rect><text transform="translate(52.9921875,118.45327377319336)" style="dominant-baseline: middle; font-size: 10.2px;" y="0" x="0" id="text-entity-Accounts-0d3cf2e9-35e5-50b3-a379-7b394fa0bf89-attr-5-name" class="er entityLabel">created_at</text><rect height="21.14658260345459" width="47.9921875" y="128.96679973602295" x="0" class="er attributeBoxEven"></rect><text transform="translate(5,139.54009103775024)" style="dominant-baseline: middle; font-size: 10.2px;" y="0" x="0" id="text-entity-Accounts-0d3cf2e9-35e5-50b3-a379-7b394fa0bf89-attr-6-type" class="er entityLabel">ObjectId</text><rect height="21.14658260345459" width="70.6796875" y="128.96679973602295" x="47.9921875" class="er attributeBoxEven"></rect><text transform="translate(52.9921875,139.54009103775024)" style="dominant-baseline: middle; font-size: 10.2px;" y="0" x="0" id="text-entity-Accounts-0d3cf2e9-35e5-50b3-a379-7b394fa0bf89-attr-6-name" class="er entityLabel">branch_id</text></g><g transform="translate(417.39383697509766,626.4918975830078 )" id="entity-Transactions-e4309bf2-7d25-5727-9845-92fca8e1a191"><rect height="192.4065465927124" width="119.796875" y="0" x="0" class="er entityBox"></rect><text transform="translate(59.8984375,11.75)" style="dominant-baseline: middle; text-anchor: middle; font-size: 12px;" y="0" x="0" id="text-entity-Transactions-e4309bf2-7d25-5727-9845-92fca8e1a191" class="er entityLabel">Transactions</text><rect height="21.14658260345459" width="47.9921875" y="23.5" x="0" class="er attributeBoxOdd"></rect><text transform="translate(5,34.073291301727295)" style="dominant-baseline: middle; font-size: 10.2px;" y="0" x="0" id="text-entity-Transactions-e4309bf2-7d25-5727-9845-92fca8e1a191-attr-1-type" class="er entityLabel">ObjectId</text><rect height="21.14658260345459" width="71.8046875" y="23.5" x="47.9921875" class="er attributeBoxOdd"></rect><text transform="translate(52.9921875,34.073291301727295)" style="dominant-baseline: middle; font-size: 10.2px;" y="0" x="0" id="text-entity-Transactions-e4309bf2-7d25-5727-9845-92fca8e1a191-attr-1-name" class="er entityLabel">_id</text><rect height="21.14658260345459" width="47.9921875" y="44.64658260345459" x="0" class="er attributeBoxEven"></rect><text transform="translate(5,55.219873905181885)" style="dominant-baseline: middle; font-size: 10.2px;" y="0" x="0" id="text-entity-Transactions-e4309bf2-7d25-5727-9845-92fca8e1a191-attr-2-type" class="er entityLabel">ObjectId</text><rect height="21.14658260345459" width="71.8046875" y="44.64658260345459" x="47.9921875" class="er attributeBoxEven"></rect><text transform="translate(52.9921875,55.219873905181885)" style="dominant-baseline: middle; font-size: 10.2px;" y="0" x="0" id="text-entity-Transactions-e4309bf2-7d25-5727-9845-92fca8e1a191-attr-2-name" class="er entityLabel">account_id</text><rect height="21.14658260345459" width="47.9921875" y="65.79316520690918" x="0" class="er attributeBoxOdd"></rect><text transform="translate(5,76.36645650863647)" style="dominant-baseline: middle; font-size: 10.2px;" y="0" x="0" id="text-entity-Transactions-e4309bf2-7d25-5727-9845-92fca8e1a191-attr-3-type" class="er entityLabel">string</text><rect height="21.14658260345459" width="71.8046875" y="65.79316520690918" x="47.9921875" class="er attributeBoxOdd"></rect><text transform="translate(52.9921875,76.36645650863647)" style="dominant-baseline: middle; font-size: 10.2px;" y="0" x="0" id="text-entity-Transactions-e4309bf2-7d25-5727-9845-92fca8e1a191-attr-3-name" class="er entityLabel">type</text><rect height="21" width="47.9921875" y="86.93974781036377" x="0" class="er attributeBoxEven"></rect><text transform="translate(5,97.43974781036377)" style="dominant-baseline: middle; font-size: 10.2px;" y="0" x="0" id="text-entity-Transactions-e4309bf2-7d25-5727-9845-92fca8e1a191-attr-4-type" class="er entityLabel">decimal</text><rect height="21" width="71.8046875" y="86.93974781036377" x="47.9921875" class="er attributeBoxEven"></rect><text transform="translate(52.9921875,97.43974781036377)" style="dominant-baseline: middle; font-size: 10.2px;" y="0" x="0" id="text-entity-Transactions-e4309bf2-7d25-5727-9845-92fca8e1a191-attr-4-name" class="er entityLabel">amount</text><rect height="21.027050971984863" width="47.9921875" y="107.93974781036377" x="0" class="er attributeBoxOdd"></rect><text transform="translate(5,118.4532732963562)" style="dominant-baseline: middle; font-size: 10.2px;" y="0" x="0" id="text-entity-Transactions-e4309bf2-7d25-5727-9845-92fca8e1a191-attr-5-type" class="er entityLabel">date</text><rect height="21.027050971984863" width="71.8046875" y="107.93974781036377" x="47.9921875" class="er attributeBoxOdd"></rect><text transform="translate(52.9921875,118.4532732963562)" style="dominant-baseline: middle; font-size: 10.2px;" y="0" x="0" id="text-entity-Transactions-e4309bf2-7d25-5727-9845-92fca8e1a191-attr-5-name" class="er entityLabel">timestamp</text><rect height="21.14658260345459" width="47.9921875" y="128.96679878234863" x="0" class="er attributeBoxEven"></rect><text transform="translate(5,139.54009008407593)" style="dominant-baseline: middle; font-size: 10.2px;" y="0" x="0" id="text-entity-Transactions-e4309bf2-7d25-5727-9845-92fca8e1a191-attr-6-type" class="er entityLabel">ObjectId</text><rect height="21.14658260345459" width="71.8046875" y="128.96679878234863" x="47.9921875" class="er attributeBoxEven"></rect><text transform="translate(52.9921875,139.54009008407593)" style="dominant-baseline: middle; font-size: 10.2px;" y="0" x="0" id="text-entity-Transactions-e4309bf2-7d25-5727-9845-92fca8e1a191-attr-6-name" class="er entityLabel">from_account</text><rect height="21.14658260345459" width="47.9921875" y="150.11338138580322" x="0" class="er attributeBoxOdd"></rect><text transform="translate(5,160.68667268753052)" style="dominant-baseline: middle; font-size: 10.2px;" y="0" x="0" id="text-entity-Transactions-e4309bf2-7d25-5727-9845-92fca8e1a191-attr-7-type" class="er entityLabel">ObjectId</text><rect height="21.14658260345459" width="71.8046875" y="150.11338138580322" x="47.9921875" class="er attributeBoxOdd"></rect><text transform="translate(52.9921875,160.68667268753052)" style="dominant-baseline: middle; font-size: 10.2px;" y="0" x="0" id="text-entity-Transactions-e4309bf2-7d25-5727-9845-92fca8e1a191-attr-7-name" class="er entityLabel">to_account</text><rect height="21.14658260345459" width="47.9921875" y="171.2599639892578" x="0" class="er attributeBoxEven"></rect><text transform="translate(5,181.8332552909851)" style="dominant-baseline: middle; font-size: 10.2px;" y="0" x="0" id="text-entity-Transactions-e4309bf2-7d25-5727-9845-92fca8e1a191-attr-8-type" class="er entityLabel">string[]</text><rect height="21.14658260345459" width="71.8046875" y="171.2599639892578" x="47.9921875" class="er attributeBoxEven"></rect><text transform="translate(52.9921875,181.8332552909851)" style="dominant-baseline: middle; font-size: 10.2px;" y="0" x="0" id="text-entity-Transactions-e4309bf2-7d25-5727-9845-92fca8e1a191-attr-8-name" class="er entityLabel">fraud_flags</text></g><g transform="translate(226.1953125,20 )" id="entity-Branches-6af52b1d-e472-50e3-abee-42651dc33a78"><rect height="213.8192434310913" width="126.75251770019531" y="0" x="0" class="er entityBox"></rect><text transform="translate(63.376258850097656,11.75)" style="dominant-baseline: middle; text-anchor: middle; font-size: 12px;" y="0" x="0" id="text-entity-Branches-6af52b1d-e472-50e3-abee-42651dc33a78" class="er entityLabel">Branches</text><rect height="21.14658260345459" width="47.9921875" y="23.5" x="0" class="er attributeBoxOdd"></rect><text transform="translate(5,34.073291301727295)" style="dominant-baseline: middle; font-size: 10.2px;" y="0" x="0" id="text-entity-Branches-6af52b1d-e472-50e3-abee-42651dc33a78-attr-1-type" class="er entityLabel">ObjectId</text><rect height="21.14658260345459" width="78.76033020019531" y="23.5" x="47.9921875" class="er attributeBoxOdd"></rect><text transform="translate(52.9921875,34.073291301727295)" style="dominant-baseline: middle; font-size: 10.2px;" y="0" x="0" id="text-entity-Branches-6af52b1d-e472-50e3-abee-42651dc33a78-attr-1-name" class="er entityLabel">_id</text><rect height="21.14658260345459" width="47.9921875" y="44.64658260345459" x="0" class="er attributeBoxEven"></rect><text transform="translate(5,55.219873905181885)" style="dominant-baseline: middle; font-size: 10.2px;" y="0" x="0" id="text-entity-Branches-6af52b1d-e472-50e3-abee-42651dc33a78-attr-2-type" class="er entityLabel">string</text><rect height="21.14658260345459" width="78.76033020019531" y="44.64658260345459" x="47.9921875" class="er attributeBoxEven"></rect><text transform="translate(52.9921875,55.219873905181885)" style="dominant-baseline: middle; font-size: 10.2px;" y="0" x="0" id="text-entity-Branches-6af52b1d-e472-50e3-abee-42651dc33a78-attr-2-name" class="er entityLabel">name</text><rect height="21.14658260345459" width="47.9921875" y="65.79316520690918" x="0" class="er attributeBoxOdd"></rect><text transform="translate(5,76.36645650863647)" style="dominant-baseline: middle; font-size: 10.2px;" y="0" x="0" id="text-entity-Branches-6af52b1d-e472-50e3-abee-42651dc33a78-attr-3-type" class="er entityLabel">object</text><rect height="21.14658260345459" width="78.76033020019531" y="65.79316520690918" x="47.9921875" class="er attributeBoxOdd"></rect><text transform="translate(52.9921875,76.36645650863647)" style="dominant-baseline: middle; font-size: 10.2px;" y="0" x="0" id="text-entity-Branches-6af52b1d-e472-50e3-abee-42651dc33a78-attr-3-name" class="er entityLabel">address</text><rect height="21.14658260345459" width="47.9921875" y="86.93974781036377" x="0" class="er attributeBoxEven"></rect><text transform="translate(5,97.51303911209106)" style="dominant-baseline: middle; font-size: 10.2px;" y="0" x="0" id="text-entity-Branches-6af52b1d-e472-50e3-abee-42651dc33a78-attr-4-type" class="er entityLabel">string</text><rect height="21.14658260345459" width="78.76033020019531" y="86.93974781036377" x="47.9921875" class="er attributeBoxEven"></rect><text transform="translate(52.9921875,97.51303911209106)" style="dominant-baseline: middle; font-size: 10.2px;" y="0" x="0" id="text-entity-Branches-6af52b1d-e472-50e3-abee-42651dc33a78-attr-4-name" class="er entityLabel">phone_number</text><rect height="21.14658260345459" width="47.9921875" y="108.08633041381836" x="0" class="er attributeBoxOdd"></rect><text transform="translate(5,118.65962171554565)" style="dominant-baseline: middle; font-size: 10.2px;" y="0" x="0" id="text-entity-Branches-6af52b1d-e472-50e3-abee-42651dc33a78-attr-5-type" class="er entityLabel">string</text><rect height="21.14658260345459" width="78.76033020019531" y="108.08633041381836" x="47.9921875" class="er attributeBoxOdd"></rect><text transform="translate(52.9921875,118.65962171554565)" style="dominant-baseline: middle; font-size: 10.2px;" y="0" x="0" id="text-entity-Branches-6af52b1d-e472-50e3-abee-42651dc33a78-attr-5-name" class="er entityLabel">email</text><rect height="21.14658260345459" width="47.9921875" y="129.23291301727295" x="0" class="er attributeBoxEven"></rect><text transform="translate(5,139.80620431900024)" style="dominant-baseline: middle; font-size: 10.2px;" y="0" x="0" id="text-entity-Branches-6af52b1d-e472-50e3-abee-42651dc33a78-attr-6-type" class="er entityLabel">string</text><rect height="21.14658260345459" width="78.76033020019531" y="129.23291301727295" x="47.9921875" class="er attributeBoxEven"></rect><text transform="translate(52.9921875,139.80620431900024)" style="dominant-baseline: middle; font-size: 10.2px;" y="0" x="0" id="text-entity-Branches-6af52b1d-e472-50e3-abee-42651dc33a78-attr-6-name" class="er entityLabel">manager</text><rect height="21.14658260345459" width="47.9921875" y="150.37949562072754" x="0" class="er attributeBoxOdd"></rect><text transform="translate(5,160.95278692245483)" style="dominant-baseline: middle; font-size: 10.2px;" y="0" x="0" id="text-entity-Branches-6af52b1d-e472-50e3-abee-42651dc33a78-attr-7-type" class="er entityLabel">string[]</text><rect height="21.14658260345459" width="78.76033020019531" y="150.37949562072754" x="47.9921875" class="er attributeBoxOdd"></rect><text transform="translate(52.9921875,160.95278692245483)" style="dominant-baseline: middle; font-size: 10.2px;" y="0" x="0" id="text-entity-Branches-6af52b1d-e472-50e3-abee-42651dc33a78-attr-7-name" class="er entityLabel">services</text><rect height="21.14658260345459" width="47.9921875" y="171.52607822418213" x="0" class="er attributeBoxEven"></rect><text transform="translate(5,182.09936952590942)" style="dominant-baseline: middle; font-size: 10.2px;" y="0" x="0" id="text-entity-Branches-6af52b1d-e472-50e3-abee-42651dc33a78-attr-8-type" class="er entityLabel">object</text><rect height="21.14658260345459" width="78.76033020019531" y="171.52607822418213" x="47.9921875" class="er attributeBoxEven"></rect><text transform="translate(52.9921875,182.09936952590942)" style="dominant-baseline: middle; font-size: 10.2px;" y="0" x="0" id="text-entity-Branches-6af52b1d-e472-50e3-abee-42651dc33a78-attr-8-name" class="er entityLabel">hours</text><rect height="21.14658260345459" width="47.9921875" y="192.67266082763672" x="0" class="er attributeBoxOdd"></rect><text transform="translate(5,203.245952129364)" style="dominant-baseline: middle; font-size: 10.2px;" y="0" x="0" id="text-entity-Branches-6af52b1d-e472-50e3-abee-42651dc33a78-attr-9-type" class="er entityLabel">object</text><rect height="21.14658260345459" width="78.76033020019531" y="192.67266082763672" x="47.9921875" class="er attributeBoxOdd"></rect><text transform="translate(52.9921875,203.245952129364)" style="dominant-baseline: middle; font-size: 10.2px;" y="0" x="0" id="text-entity-Branches-6af52b1d-e472-50e3-abee-42651dc33a78-attr-9-name" class="er entityLabel">location</text></g><g transform="translate(75.12758255004883,333.8192443847656 )" id="entity-ATMs-0befaeb2-ae56-53bd-bdfe-5b551ef735fa"><rect height="192.67266082763672" width="112.4140625" y="0" x="0" class="er entityBox"></rect><text transform="translate(56.20703125,11.75)" style="dominant-baseline: middle; text-anchor: middle; font-size: 12px;" y="0" x="0" id="text-entity-ATMs-0befaeb2-ae56-53bd-bdfe-5b551ef735fa" class="er entityLabel">ATMs</text><rect height="21.14658260345459" width="47.9921875" y="23.5" x="0" class="er attributeBoxOdd"></rect><text transform="translate(5,34.073291301727295)" style="dominant-baseline: middle; font-size: 10.2px;" y="0" x="0" id="text-entity-ATMs-0befaeb2-ae56-53bd-bdfe-5b551ef735fa-attr-1-type" class="er entityLabel">ObjectId</text><rect height="21.14658260345459" width="64.421875" y="23.5" x="47.9921875" class="er attributeBoxOdd"></rect><text transform="translate(52.9921875,34.073291301727295)" style="dominant-baseline: middle; font-size: 10.2px;" y="0" x="0" id="text-entity-ATMs-0befaeb2-ae56-53bd-bdfe-5b551ef735fa-attr-1-name" class="er entityLabel">_id</text><rect height="21.14658260345459" width="47.9921875" y="44.64658260345459" x="0" class="er attributeBoxEven"></rect><text transform="translate(5,55.219873905181885)" style="dominant-baseline: middle; font-size: 10.2px;" y="0" x="0" id="text-entity-ATMs-0befaeb2-ae56-53bd-bdfe-5b551ef735fa-attr-2-type" class="er entityLabel">ObjectId</text><rect height="21.14658260345459" width="64.421875" y="44.64658260345459" x="47.9921875" class="er attributeBoxEven"></rect><text transform="translate(52.9921875,55.219873905181885)" style="dominant-baseline: middle; font-size: 10.2px;" y="0" x="0" id="text-entity-ATMs-0befaeb2-ae56-53bd-bdfe-5b551ef735fa-attr-2-name" class="er entityLabel">branch_id</text><rect height="21.14658260345459" width="47.9921875" y="65.79316520690918" x="0" class="er attributeBoxOdd"></rect><text transform="translate(5,76.36645650863647)" style="dominant-baseline: middle; font-size: 10.2px;" y="0" x="0" id="text-entity-ATMs-0befaeb2-ae56-53bd-bdfe-5b551ef735fa-attr-3-type" class="er entityLabel">object</text><rect height="21.14658260345459" width="64.421875" y="65.79316520690918" x="47.9921875" class="er attributeBoxOdd"></rect><text transform="translate(52.9921875,76.36645650863647)" style="dominant-baseline: middle; font-size: 10.2px;" y="0" x="0" id="text-entity-ATMs-0befaeb2-ae56-53bd-bdfe-5b551ef735fa-attr-3-name" class="er entityLabel">location</text><rect height="21.14658260345459" width="47.9921875" y="86.93974781036377" x="0" class="er attributeBoxEven"></rect><text transform="translate(5,97.51303911209106)" style="dominant-baseline: middle; font-size: 10.2px;" y="0" x="0" id="text-entity-ATMs-0befaeb2-ae56-53bd-bdfe-5b551ef735fa-attr-4-type" class="er entityLabel">object</text><rect height="21.14658260345459" width="64.421875" y="86.93974781036377" x="47.9921875" class="er attributeBoxEven"></rect><text transform="translate(52.9921875,97.51303911209106)" style="dominant-baseline: middle; font-size: 10.2px;" y="0" x="0" id="text-entity-ATMs-0befaeb2-ae56-53bd-bdfe-5b551ef735fa-attr-4-name" class="er entityLabel">address</text><rect height="21.14658260345459" width="47.9921875" y="108.08633041381836" x="0" class="er attributeBoxOdd"></rect><text transform="translate(5,118.65962171554565)" style="dominant-baseline: middle; font-size: 10.2px;" y="0" x="0" id="text-entity-ATMs-0befaeb2-ae56-53bd-bdfe-5b551ef735fa-attr-5-type" class="er entityLabel">string</text><rect height="21.14658260345459" width="64.421875" y="108.08633041381836" x="47.9921875" class="er attributeBoxOdd"></rect><text transform="translate(52.9921875,118.65962171554565)" style="dominant-baseline: middle; font-size: 10.2px;" y="0" x="0" id="text-entity-ATMs-0befaeb2-ae56-53bd-bdfe-5b551ef735fa-attr-5-name" class="er entityLabel">type</text><rect height="21.14658260345459" width="47.9921875" y="129.23291301727295" x="0" class="er attributeBoxEven"></rect><text transform="translate(5,139.80620431900024)" style="dominant-baseline: middle; font-size: 10.2px;" y="0" x="0" id="text-entity-ATMs-0befaeb2-ae56-53bd-bdfe-5b551ef735fa-attr-6-type" class="er entityLabel">string[]</text><rect height="21.14658260345459" width="64.421875" y="129.23291301727295" x="47.9921875" class="er attributeBoxEven"></rect><text transform="translate(52.9921875,139.80620431900024)" style="dominant-baseline: middle; font-size: 10.2px;" y="0" x="0" id="text-entity-ATMs-0befaeb2-ae56-53bd-bdfe-5b551ef735fa-attr-6-name" class="er entityLabel">features</text><rect height="21.14658260345459" width="47.9921875" y="150.37949562072754" x="0" class="er attributeBoxOdd"></rect><text transform="translate(5,160.95278692245483)" style="dominant-baseline: middle; font-size: 10.2px;" y="0" x="0" id="text-entity-ATMs-0befaeb2-ae56-53bd-bdfe-5b551ef735fa-attr-7-type" class="er entityLabel">boolean</text><rect height="21.14658260345459" width="64.421875" y="150.37949562072754" x="47.9921875" class="er attributeBoxOdd"></rect><text transform="translate(52.9921875,160.95278692245483)" style="dominant-baseline: middle; font-size: 10.2px;" y="0" x="0" id="text-entity-ATMs-0befaeb2-ae56-53bd-bdfe-5b551ef735fa-attr-7-name" class="er entityLabel">accessibility</text><rect height="21.14658260345459" width="47.9921875" y="171.52607822418213" x="0" class="er attributeBoxEven"></rect><text transform="translate(5,182.09936952590942)" style="dominant-baseline: middle; font-size: 10.2px;" y="0" x="0" id="text-entity-ATMs-0befaeb2-ae56-53bd-bdfe-5b551ef735fa-attr-8-type" class="er entityLabel">string</text><rect height="21.14658260345459" width="64.421875" y="171.52607822418213" x="47.9921875" class="er attributeBoxEven"></rect><text transform="translate(52.9921875,182.09936952590942)" style="dominant-baseline: middle; font-size: 10.2px;" y="0" x="0" id="text-entity-ATMs-0befaeb2-ae56-53bd-bdfe-5b551ef735fa-attr-8-name" class="er entityLabel">status</text></g><g transform="translate(150.25258255004883,918.8984375 )" id="entity-Alerts-da000265-c200-528a-9346-e86242161f69"><rect height="192.4065465927124" width="121.5" y="0" x="0" class="er entityBox"></rect><text transform="translate(60.75,11.75)" style="dominant-baseline: middle; text-anchor: middle; font-size: 12px;" y="0" x="0" id="text-entity-Alerts-da000265-c200-528a-9346-e86242161f69" class="er entityLabel">Alerts</text><rect height="21.14658260345459" width="47.9921875" y="23.5" x="0" class="er attributeBoxOdd"></rect><text transform="translate(5,34.073291301727295)" style="dominant-baseline: middle; font-size: 10.2px;" y="0" x="0" id="text-entity-Alerts-da000265-c200-528a-9346-e86242161f69-attr-1-type" class="er entityLabel">ObjectId</text><rect height="21.14658260345459" width="73.5078125" y="23.5" x="47.9921875" class="er attributeBoxOdd"></rect><text transform="translate(52.9921875,34.073291301727295)" style="dominant-baseline: middle; font-size: 10.2px;" y="0" x="0" id="text-entity-Alerts-da000265-c200-528a-9346-e86242161f69-attr-1-name" class="er entityLabel">_id</text><rect height="21.14658260345459" width="47.9921875" y="44.64658260345459" x="0" class="er attributeBoxEven"></rect><text transform="translate(5,55.219873905181885)" style="dominant-baseline: middle; font-size: 10.2px;" y="0" x="0" id="text-entity-Alerts-da000265-c200-528a-9346-e86242161f69-attr-2-type" class="er entityLabel">ObjectId</text><rect height="21.14658260345459" width="73.5078125" y="44.64658260345459" x="47.9921875" class="er attributeBoxEven"></rect><text transform="translate(52.9921875,55.219873905181885)" style="dominant-baseline: middle; font-size: 10.2px;" y="0" x="0" id="text-entity-Alerts-da000265-c200-528a-9346-e86242161f69-attr-2-name" class="er entityLabel">customer_id</text><rect height="21.14658260345459" width="47.9921875" y="65.79316520690918" x="0" class="er attributeBoxOdd"></rect><text transform="translate(5,76.36645650863647)" style="dominant-baseline: middle; font-size: 10.2px;" y="0" x="0" id="text-entity-Alerts-da000265-c200-528a-9346-e86242161f69-attr-3-type" class="er entityLabel">ObjectId</text><rect height="21.14658260345459" width="73.5078125" y="65.79316520690918" x="47.9921875" class="er attributeBoxOdd"></rect><text transform="translate(52.9921875,76.36645650863647)" style="dominant-baseline: middle; font-size: 10.2px;" y="0" x="0" id="text-entity-Alerts-da000265-c200-528a-9346-e86242161f69-attr-3-name" class="er entityLabel">account_id</text><rect height="21.14658260345459" width="47.9921875" y="86.93974781036377" x="0" class="er attributeBoxEven"></rect><text transform="translate(5,97.51303911209106)" style="dominant-baseline: middle; font-size: 10.2px;" y="0" x="0" id="text-entity-Alerts-da000265-c200-528a-9346-e86242161f69-attr-4-type" class="er entityLabel">ObjectId</text><rect height="21.14658260345459" width="73.5078125" y="86.93974781036377" x="47.9921875" class="er attributeBoxEven"></rect><text transform="translate(52.9921875,97.51303911209106)" style="dominant-baseline: middle; font-size: 10.2px;" y="0" x="0" id="text-entity-Alerts-da000265-c200-528a-9346-e86242161f69-attr-4-name" class="er entityLabel">transaction_id</text><rect height="21.14658260345459" width="47.9921875" y="108.08633041381836" x="0" class="er attributeBoxOdd"></rect><text transform="translate(5,118.65962171554565)" style="dominant-baseline: middle; font-size: 10.2px;" y="0" x="0" id="text-entity-Alerts-da000265-c200-528a-9346-e86242161f69-attr-5-type" class="er entityLabel">string</text><rect height="21.14658260345459" width="73.5078125" y="108.08633041381836" x="47.9921875" class="er attributeBoxOdd"></rect><text transform="translate(52.9921875,118.65962171554565)" style="dominant-baseline: middle; font-size: 10.2px;" y="0" x="0" id="text-entity-Alerts-da000265-c200-528a-9346-e86242161f69-attr-5-name" class="er entityLabel">type</text><rect height="21.14658260345459" width="47.9921875" y="129.23291301727295" x="0" class="er attributeBoxEven"></rect><text transform="translate(5,139.80620431900024)" style="dominant-baseline: middle; font-size: 10.2px;" y="0" x="0" id="text-entity-Alerts-da000265-c200-528a-9346-e86242161f69-attr-6-type" class="er entityLabel">string</text><rect height="21.14658260345459" width="73.5078125" y="129.23291301727295" x="47.9921875" class="er attributeBoxEven"></rect><text transform="translate(52.9921875,139.80620431900024)" style="dominant-baseline: middle; font-size: 10.2px;" y="0" x="0" id="text-entity-Alerts-da000265-c200-528a-9346-e86242161f69-attr-6-name" class="er entityLabel">message</text><rect height="21.027050971984863" width="47.9921875" y="150.37949562072754" x="0" class="er attributeBoxOdd"></rect><text transform="translate(5,160.89302110671997)" style="dominant-baseline: middle; font-size: 10.2px;" y="0" x="0" id="text-entity-Alerts-da000265-c200-528a-9346-e86242161f69-attr-7-type" class="er entityLabel">date</text><rect height="21.027050971984863" width="73.5078125" y="150.37949562072754" x="47.9921875" class="er attributeBoxOdd"></rect><text transform="translate(52.9921875,160.89302110671997)" style="dominant-baseline: middle; font-size: 10.2px;" y="0" x="0" id="text-entity-Alerts-da000265-c200-528a-9346-e86242161f69-attr-7-name" class="er entityLabel">timestamp</text><rect height="21" width="47.9921875" y="171.4065465927124" x="0" class="er attributeBoxEven"></rect><text transform="translate(5,181.9065465927124)" style="dominant-baseline: middle; font-size: 10.2px;" y="0" x="0" id="text-entity-Alerts-da000265-c200-528a-9346-e86242161f69-attr-8-type" class="er entityLabel">boolean</text><rect height="21" width="73.5078125" y="171.4065465927124" x="47.9921875" class="er attributeBoxEven"></rect><text transform="translate(52.9921875,181.9065465927124)" style="dominant-baseline: middle; font-size: 10.2px;" y="0" x="0" id="text-entity-Alerts-da000265-c200-528a-9346-e86242161f69-attr-8-name" class="er entityLabel">resolved</text></g><rect height="13.500015258789062" width="19.3515625" y="245.08707427978516" x="232.1322479248047" class="er relationshipLabelBox"></rect><text style="text-anchor: middle; dominant-baseline: middle; font-size: 12px;" y="251.8370819091797" x="241.8080291748047" id="rel66" class="er relationshipLabel">has</text><rect height="13.5" width="43.359375" y="556.3131103515625" x="445.5725402832031" class="er relationshipLabelBox"></rect><text style="text-anchor: middle; dominant-baseline: middle; font-size: 12px;" y="563.0631103515625" x="467.2522277832031" id="rel67" class="er relationshipLabel">involves</text><rect height="13.5" width="28.6875" y="255.6412353515625" x="403.5627136230469" class="er relationshipLabelBox"></rect><text style="text-anchor: middle; dominant-baseline: middle; font-size: 12px;" y="262.3912353515625" x="417.9064636230469" id="rel68" class="er relationshipLabel">hosts</text><rect height="13.499984741210938" width="19.3515625" y="247.17574310302734" x="154.75437927246094" class="er relationshipLabelBox"></rect><text style="text-anchor: middle; dominant-baseline: middle; font-size: 12px;" y="253.9257354736328" x="164.43016052246094" id="rel69" class="er relationshipLabel">has</text><rect height="13.5" width="44.6875" y="619.0240478515625" x="-77.34974670410156" class="er relationshipLabelBox"></rect><text style="text-anchor: middle; dominant-baseline: middle; font-size: 12px;" y="625.7740478515625" x="-55.00599670410156" id="rel70" class="er relationshipLabel">receives</text><rect height="13.525390625" width="40.015625" y="667.2786254882812" x="191.78948974609375" class="er relationshipLabelBox"></rect><text style="text-anchor: middle; dominant-baseline: middle; font-size: 12px;" y="674.0413208007812" x="211.79730224609375" id="rel71" class="er relationshipLabel">triggers</text><rect height="13.5" width="38.0234375" y="907.9567260742188" x="371.497314453125" class="er relationshipLabelBox"></rect><text style="text-anchor: middle; dominant-baseline: middle; font-size: 12px;" y="914.7067260742188" x="390.509033203125" id="rel72" class="er relationshipLabel">causes</text></svg>